<?xml version="1.0" encoding="utf-8"?>
<svg version="1.1" xmlns="http://www.w3.org/2000/svg" xmlns:xlink="http://www.w3.org/1999/xlink" x="px" y="0px"
	 viewBox="100 100 300 200" width="100px" height="50px">
<g id="OBJECTS">
	<g>
		<g>
			<g>
				<path style="fill:128 128 128;" d="M362.328,225.437c-1.461,1.995-5.695,5.354-5.695,5.354c-11.445,5.479-24.853,1.189-38.839-5.986
					v-4.234l8.466-3.358h8.764"/>
				
				<path style="fill:128 128 128;" d="M319.668,220.414c0.998-1.79,9.576-2.601,9.292-2.601c-0.283,0-5.12,2.266-6.554,3.683
					c-1.435,1.416-3.361,4.714-3.361,4.714S318.818,221.938,319.668,220.414z"/>
			</g>
			<g>
				<path style="fill:#FFFFFF;" d="M325.336,211.193c2.584,0.92,4.774-1.489,4.774-1.489l1.489,0.832c0,0-2.059-3.548-4.292-4.424
					c-2.234-0.876-6.389,0.713-6.389,0.713l1.659,0.163C322.577,206.988,322.752,210.273,325.336,211.193z"/>
				<g>
					<path style="fill:128 128 128;" d="M282.724,285.989c8.356,12.203,19.279,31.065,20.697,27.227
						c6.589-15.563,2.52-31.954-3.195-44.38c-3.916,4.605-8.58,9.402-14.143,14.352
						C284.986,284.164,283.863,285.091,282.724,285.989z"/>
				</g>
				<g>
					<path style="fill:rgb(171 171 171);" d="M366.138,194.21c1.523,0.415,2.714,0.883,3.6,1.382
						C368.852,195.092,367.662,194.625,366.138,194.21z"/>
					<path style="fill:rgb(171 171 171);" d="M360.493,193.139c1.092,0.141,2.098,0.299,3.019,0.473
						C362.591,193.439,361.585,193.28,360.493,193.139z"/>
					<path style="fill:rgb(171 171 171);" d="M371.665,197.464c-0.193-0.506-0.623-1.007-1.308-1.486c-4.933,1.442-9.866,2.884-14.799,4.326
						c-2.158,0.631-4.371,1.288-6.159,2.652c-2.037,1.554-3.372,3.916-5.501,5.341c-2.129,1.425-5.744,1.259-6.505-1.188
						c-1.586,5.608-7.725,9.519-13.478,8.588c-2.486,3.34-8.469,1.219-11.437,4.14c-6.767-9.567-27.534,9.214-29.848,11.08
						c-2.315,1.866-7.301-0.102-13.204-1.231c-5.903-1.128-11.509,1.922-11.509,1.922c17.412-0.794,22.179,6.966,26.852,2.734
						c11.375-10.405,19.575-12.345,23.561-9.229c2.2,3.736,1.38,8.88-1.603,11.959c-0.485,0.501-1.022,0.953-1.618,1.329
						c-1.508,0.952-3.441,1.474-5.083,0.781c-1.382-0.583-2.279-2.258-1.912-3.636c0.069-0.261,0.168-0.514,0.334-0.744
						c1.79-1.459,4.683-0.535,4.961,0.811c-0.056,0.066-0.299-5.274-4.961-3.995c-3.184,0.874-4.062,2.19-3.857,4.513
						c0.095,1.079,0.422,2.372,0.863,3.942c0.501,1.785-0.26,3.363-1.43,4.657c-1.126,0.973-2.505,1.749-3.862,2.278
						c-2.435,0.949-4.961,1.518-7.533,1.905c0.004,0.079,0.002,0.126,0.002,0.126c-0.713,0.713-5.457,7.786-7.355,13.664
						c-0.284,0.879-0.507,1.732-0.64,2.532c-0.447,2.68-2.531,11.397-7.198,21.073c5.019,0.391,10.096,0.326,15.2-0.281
						c1.44-0.171,2.882-0.377,4.326-0.637c7.329-1.32,13.81-2.979,19.554-4.864c36.71-12.046,43.013-33.404,44.043-35.723
						c1.192-2.682,10.726-13.259,9.534-15.046c-1.192-1.788-13.179-0.138-16.903-0.734c-3.724-0.596-15.59-6.16-16.931-6.011
						c-1.341,0.149-6.985-0.703-6.985-0.703s4.916-3.426,6.853-3.277c1.937,0.149,6.406,2.235,9.087,2.979
						c2.682,0.745,21.452,0.894,27.113,3.426C363.966,225.139,373.524,202.344,371.665,197.464z"/>
					<path style="fill:rgb(171 171 171);" d="M278.089,243.641C278.089,243.641,278.089,243.641,278.089,243.641
						c5.83,0.423,9.274-5.328,9.274-5.328s-1.339,1.739-4.484,1.898c-0.999,0.051-2.176-0.055-3.555-0.43
						c-5.723-1.557-34.338-9.921-44.461,1.463c-4.745,5.337-5.407,9.284-4.77,11.972c-0.023-0.009-0.046-0.017-0.069-0.026
						l0.072,0.037c1.717,9.694-8.595,4.462-8.595,4.462s5.552-3.217,0-5.041c-5.553-1.823-3.066,4.061-3.066,4.061
						c-5.884-3.315-5.718-8.867-3.792-11.535c0,0,0-0.001,0-0.001l0,0l0.012,0.006c-0.004-0.002-0.008-0.005-0.011-0.007
						c1.938-1.794,7.801-6.992,12.629-8.855c5.873-2.267,13.705-2.576,13.705-2.576s-11.026-4.019-17.826-2.473
						c0,0,4.225,1.546,0.103,3.4c-4.122,1.855-8.759-1.133-10.407-0.721c-1.531,0.383-8.587,7.886-14.898,6.477
						c-0.483-0.16-0.969-0.309-1.446-0.487c-0.289-0.135-0.536-0.229-0.764-0.305c-1.265-0.535-2.479-1.248-3.146-2.424
						c-0.801-1.412-0.307-3.625,1.272-4.004c5.571-1.019,8.236,0.504,11.757-1.685c3.521-2.189,9.422-6.472,18.273-5.33
						c8.851,1.142,12.658,2.57,12.658,2.57s-12.943-7.043-19.605-7.899c-6.662-0.856-12.848,4.949-18.178,4.283
						c-4.957-0.62-13.615-1.498-18.783,1.184c-0.002-0.001-0.005-0.002-0.007-0.002c-0.037,0.019-0.07,0.036-0.106,0.055
						c-0.007,0.004-0.014,0.008-0.022,0.012c-4.207,2.196-5.833,3.196-5.833,3.196s-0.054-1.897,2.291-4.395
						c-0.006-0.002-0.012-0.003-0.019-0.005h0.021c0.006-0.007,0.014-0.014,0.02-0.021c0.03-0.031,0.061-0.063,0.092-0.094
						c3.037-3.307,6.824-5.678,11.858-6.056c1.91-0.255-4.415-3.693-9.403-1.91c0,0,1.253,3.113-3.332,3.785
						c-4.585,0.672-5.221-4.04-7.259-3.403c-1.912,0.598-9.54,5.109-6.373,7.298c-1.266,0.124-2.526,0.215-3.773,0.197
						c2.616,1.25,5.759,3.215,9.712,6.232c9.27,7.074,39.234,37.488,75.657,49.965c0.66-2.376,1.16-4.475,1.398-6.109
						c1.22-8.389-1.191-15.411-3.181-19.219l0.001,0c-0.001-0.002-0.001-0.004-0.002-0.006c-0.913-1.879-1.25-4.548-0.441-7.143
						c0.957-3.07,3.523-6.037,8.715-7.462c4.721-1.296,10.188-0.835,15.221,0.016c4.663,0.788,8.941,1.903,11.909,2.278
						C277.463,243.58,277.79,243.619,278.089,243.641z"/>
					<path style="opacity:0.42;fill:rgb(171 171 171);" d="M320.968,245.708c-18.578,3.47-36.457,9.928-54.826,14.373
						c-18.369,4.445-37.785,6.839-56.078,2.091c-2.114-0.549-4.187-1.203-6.234-1.92c11.589,8.086,25.114,15.944,39.678,20.933
						c-0.708,2.551-1.601,5.423-2.568,8.417c0.831,0.87,1.686,1.716,2.573,2.528c-1.172,0.229-2.358,0.381-3.548,0.465
						c-0.308,0.938-0.619,1.88-0.93,2.82c0.683,0.287,1.343,0.627,1.965,1.029c-0.793,0.075-1.586,0.149-2.379,0.224
						c-3.747,11.336-7.22,22-4.375,21.05c16.772-4.742,27.146-18.881,33.189-31.41c5.019,0.391,10.096,0.326,15.2-0.281
						c0.035-0.004,0.07-0.01,0.105-0.014c8.354,12.204,19.263,31.039,20.68,27.203c4.591-10.845,4.005-22.09,1.295-32.117
						c0.606-0.189,1.209-0.378,1.799-0.572c30.15-9.893,39.783-26.06,42.836-32.809c-2.165-1.182-4.51-2.066-6.895-2.609
						C335.42,243.504,328.063,244.382,320.968,245.708z"/>
				</g>
			</g>
			<path style="fill:rgb(171 171 171);" d="M273.33,226.21c0,0,3.252,1.86,5.692,1.251c2.439-0.61,10.469-9.018,16.669-10.861
				c0-0.014-7.42-1.031-11.993,2.628C279.123,222.886,273.33,226.21,273.33,226.21z"/>
			<path style="fill:128 128 128;" d="M193.864,233.206c-5.714-0.416-11.552-1.363-11.552-1.363s10.932,10.434,18.325,8.688"/>
			<path style="fill:128 128 128;" d="M370.356,195.977c-0.184-0.128-0.386-0.255-0.607-0.38c-0.004-0.002-0.007-0.004-0.011-0.006
				c-0.886-0.499-2.077-0.967-3.6-1.382c-0.02-0.005-0.039-0.011-0.059-0.016c-0.367-0.099-0.754-0.195-1.16-0.288
				c-0.026-0.006-0.053-0.012-0.079-0.018c-0.412-0.093-0.843-0.183-1.295-0.269c-0.011-0.002-0.022-0.004-0.033-0.006
				c-0.921-0.174-1.927-0.332-3.019-0.473c-0.034-0.004-0.066-0.009-0.1-0.013c-0.521-0.066-1.064-0.128-1.625-0.186
				c-0.063-0.007-0.126-0.013-0.19-0.019c-0.555-0.056-1.13-0.107-1.725-0.155c-0.07-0.005-0.141-0.011-0.211-0.016
				c-0.609-0.047-1.236-0.09-1.887-0.127c-0.039-0.002-0.079-0.004-0.118-0.006c-0.676-0.038-1.371-0.071-2.092-0.098
				c-0.009,0-0.017-0.001-0.026-0.001c-0.703-0.026-1.432-0.046-2.178-0.061c-0.086-0.002-0.171-0.004-0.258-0.006
				c-0.719-0.013-1.46-0.021-2.22-0.023c-0.119,0-0.239-0.001-0.359-0.001c-0.759-0.001-1.538,0.003-2.339,0.013
				c-0.117,0.002-0.237,0.004-0.355,0.005c-0.828,0.012-1.674,0.029-2.546,0.053c-0.061,0.002-0.123,0.004-0.184,0.006
				c-0.882,0.025-1.787,0.057-2.714,0.095c-0.06,0.003-0.119,0.004-0.18,0.007c-0.92,0.039-1.868,0.085-2.833,0.137
				c-0.142,0.008-0.283,0.015-0.426,0.023c-0.941,0.052-1.905,0.111-2.889,0.176c-0.171,0.011-0.344,0.023-0.516,0.035
				c-0.99,0.067-2,0.14-3.034,0.221c-0.161,0.013-0.326,0.026-0.488,0.039c-1.076,0.086-2.171,0.177-3.294,0.277
				c-0.066,0.006-0.135,0.012-0.202,0.019c-1.121,0.101-2.268,0.21-3.437,0.326c-0.116,0.012-0.23,0.022-0.346,0.034
				c-1.16,0.116-2.348,0.242-3.556,0.374c-0.2,0.022-0.399,0.043-0.6,0.066c-1.187,0.131-2.397,0.27-3.63,0.417
				c-0.22,0.026-0.442,0.053-0.664,0.08c-1.253,0.151-2.527,0.309-3.827,0.476c-0.185,0.024-0.373,0.049-0.559,0.073
				c-1.365,0.177-2.75,0.36-4.167,0.555c-0.049,0.007-0.099,0.014-0.147,0.021c-1.406,0.194-2.842,0.398-4.3,0.611
				c-0.169,0.024-0.334,0.048-0.504,0.073c-1.426,0.209-2.882,0.428-4.358,0.655c-0.254,0.039-0.506,0.078-0.761,0.117
				c-1.461,0.226-2.947,0.461-4.458,0.706c-0.263,0.042-0.528,0.086-0.793,0.129c-1.545,0.251-3.111,0.511-4.708,0.782
				c-0.2,0.034-0.405,0.069-0.606,0.104c-1.688,0.287-3.397,0.583-5.143,0.892c-0.546,0.097-1.138,0.192-1.753,0.286
				c-5.227-10.531-19.052-38.739-37.192-54.61c-6.176-2.831-1.231,9.242-1.261,23.634c0.73,0.647,1.461,1.293,2.191,1.94
				c0.116,0.102,0.241,0.229,0.227,0.383c-0.014,0.146-0.149,0.246-0.271,0.326c-0.767,0.504-1.534,1.007-2.301,1.511
				c-0.029,0.385-0.068,0.771-0.107,1.157c0.655,0.7,1.238,1.47,1.694,2.314c0.12,0.222,0.233,0.493,0.115,0.716
				c-0.165,0.312-0.649,0.293-0.872,0.567c-0.571,0.7,1.254,1.719,0.636,2.377c-0.1,0.107-0.244,0.159-0.382,0.207
				c-0.83,0.292-1.66,0.583-2.49,0.875c-0.06,0.217-0.112,0.436-0.177,0.652c-2,6.332-7.691,14.209-7.665,17.663
				c0.013,1.706,0.42,2.782,0.828,3.436c-29.612,0.715-62.33-0.28-73.013-4.556c-10.191-4.079-12.937-68.999-18.543-72.449
				c-4.312-2.156-7.823,44.91-7.645,51.147c-0.178,0.713-4.277,13.9-3.564,16.216c0.713,2.317,6.415,7.484,6.237,9.979
				c-0.178,2.495-14.834,30.65-12.229,31.898c2.606,1.247,18.644-11.103,23.99-12.056c0.238-0.042,0.474-0.085,0.708-0.128
				c0.184-0.033,0.368-0.066,0.552-0.098c0.044-0.008,0.089-0.016,0.134-0.024c0.212-0.037,0.425-0.073,0.637-0.107
				c0.017-0.003,0.035-0.005,0.052-0.008c0.19-0.03,0.381-0.058,0.572-0.084c0.043-0.006,0.085-0.012,0.128-0.017
				c0.426-0.056,0.856-0.101,1.296-0.129c0.032-0.002,0.065-0.003,0.097-0.005c0.194-0.011,0.391-0.019,0.589-0.023
				c0.034-0.001,0.068-0.002,0.102-0.002c0.454-0.006,0.922,0.01,1.406,0.051c0.039,0.003,0.079,0.007,0.119,0.011
				c0.228,0.021,0.46,0.048,0.697,0.082c0.014,0.002,0.028,0.003,0.042,0.006c0.26,0.038,0.527,0.085,0.798,0.14
				c0.019,0.004,0.038,0.008,0.057,0.012c0.245,0.051,0.496,0.11,0.751,0.175c0.043,0.011,0.087,0.022,0.13,0.034
				c0.557,0.148,1.141,0.333,1.755,0.561c0.044,0.016,0.089,0.034,0.133,0.051c0.276,0.105,0.559,0.218,0.848,0.34
				c0.04,0.017,0.079,0.033,0.119,0.05c0.333,0.143,0.674,0.297,1.025,0.464c1.247,0.018,2.508-0.073,3.773-0.197
				c-3.168-2.19,4.461-6.701,6.373-7.298c2.038-0.637,2.674,4.075,7.259,3.403c4.585-0.672,3.332-3.785,3.332-3.785
				c4.988-1.783,11.313,1.656,9.403,1.91c-5.034,0.377-8.821,2.749-11.858,6.056c-0.03,0.033-0.062,0.062-0.092,0.094
				c-0.007,0.007-0.014,0.013-0.02,0.021h-0.021c0.006,0.001,0.012,0.003,0.019,0.005c-2.345,2.498-2.291,4.395-2.291,4.395
				s1.626-1,5.833-3.196c0.007-0.004,0.015-0.008,0.022-0.012c0.036-0.019,0.069-0.036,0.106-0.055
				c0.002,0.001,0.005,0.002,0.007,0.002c5.169-2.683,13.826-1.804,18.783-1.184c5.33,0.666,11.516-5.139,18.178-4.283
				c6.662,0.857,19.605,7.899,19.605,7.899s-3.807-1.428-12.658-2.57c-8.851-1.142-14.751,3.141-18.273,5.33
				c-3.521,2.189-6.186,0.666-11.757,1.685c-1.578,0.379-2.072,2.592-1.272,4.004c0.667,1.176,1.881,1.889,3.146,2.424
				c0.228,0.076,0.475,0.17,0.764,0.305c0.477,0.178,0.963,0.327,1.446,0.487c6.311,1.409,13.368-6.094,14.898-6.477
				c1.649-0.412,6.286,2.576,10.407,0.721c4.122-1.855-0.103-3.4-0.103-3.4c6.801-1.546,17.826,2.473,17.826,2.473
				s-7.831,0.309-13.705,2.576c-4.828,1.863-10.691,7.061-12.629,8.855c0.004,0.002,0.007,0.005,0.011,0.007l-0.012-0.006l0,0
				c0,0,0,0.001,0,0.001c-1.926,2.668-2.091,8.22,3.792,11.535c0,0-2.486-5.884,3.066-4.061c5.552,1.823,0,5.041,0,5.041
				s10.313,5.232,8.595-4.462l-0.072-0.037c0.023,0.009,0.046,0.017,0.069,0.026c-0.637-2.688,0.024-6.635,4.77-11.972
				c10.123-11.384,38.738-3.021,44.461-1.463c1.379,0.375,2.556,0.48,3.555,0.43c3.145-0.159,4.484-1.898,4.484-1.898
				s-3.444,5.751-9.274,5.328c0,0,0,0,0,0c-0.298-0.022-0.626-0.061-0.958-0.103c-2.968-0.374-7.246-1.49-11.909-2.278
				c-5.032-0.85-10.5-1.312-15.221-0.016c-5.192,1.426-7.758,4.392-8.715,7.462c-0.809,2.595-0.473,5.264,0.441,7.143
				c0.001,0.002,0.002,0.004,0.002,0.006l-0.001,0c1.99,3.808,4.401,10.83,3.181,19.219c-0.238,1.634-0.738,3.733-1.398,6.109
				c-0.708,2.551-1.601,5.423-2.568,8.417c0.831,0.87,1.686,1.716,2.573,2.528c-1.172,0.229-2.358,0.381-3.548,0.465
				c-0.308,0.938-0.619,1.88-0.93,2.82c0.683,0.287,1.343,0.627,1.965,1.029c-0.793,0.075-1.586,0.149-2.379,0.224
				c-3.747,11.336-7.22,22-4.375,21.05c16.772-4.742,27.146-18.881,33.189-31.41c4.668-9.677,6.752-18.393,7.198-21.073
				c0.133-0.8,0.357-1.653,0.64-2.532c1.898-5.877,6.642-12.951,7.355-13.664c0,0,0.001-0.047-0.002-0.126
				c2.572-0.387,5.098-0.956,7.533-1.905c1.357-0.529,2.736-1.304,3.862-2.278c1.17-1.294,1.932-2.872,1.43-4.657
				c-0.441-1.57-0.768-2.864-0.863-3.942c-0.205-2.323,0.673-3.639,3.857-4.513c4.663-1.28,4.906,4.061,4.961,3.995
				c-0.278-1.346-3.171-2.27-4.961-0.811c-0.166,0.23-0.265,0.483-0.334,0.744c-0.366,1.378,0.531,3.053,1.912,3.636
				c1.643,0.694,3.575,0.171,5.083-0.781c0.597-0.376,1.133-0.828,1.618-1.329c2.984-3.079,3.804-8.223,1.603-11.959
				c-3.986-3.116-12.187-1.176-23.561,9.229c-4.673,4.232-9.44-3.527-26.852-2.734c0,0,5.607-3.05,11.509-1.922
				c5.903,1.128,10.889,3.096,13.204,1.231c2.315-1.866,23.081-20.647,29.848-11.08c2.968-2.921,8.951-0.8,11.437-4.14
				c5.753,0.932,11.892-2.979,13.478-8.588c0.76,2.447,4.376,2.613,6.505,1.188c2.129-1.425,3.464-3.787,5.501-5.341
				c1.788-1.364,4-2.021,6.159-2.652C360.491,198.861,365.424,197.42,370.356,195.977L370.356,195.977
				C370.357,195.978,370.357,195.977,370.356,195.977z M330.11,209.703c0,0-2.19,2.409-4.774,1.489
				c-2.584-0.92-2.759-4.205-2.759-4.205l-1.659-0.163c0,0,4.155-1.589,6.389-0.713c2.234,0.876,4.292,4.424,4.292,4.424
				L330.11,209.703z"/>
		</g>
	</g>
</g>
</svg>
